<?xml version="1.0" encoding="UTF-8"?>
<svg id="Calque_1" data-name="Calque 1" xmlns="http://www.w3.org/2000/svg" viewBox="0 0 133.19 150">
  <path d="M64.16,99.32c0,1.23,1.67,2.04,2.56,1.96,1.1-.1,2.2-1.01,2.2-2.48v-21.93c4.3-1.29,6.93-4.94,6.89-9.07-.03-4.1-2.79-7.67-6.88-8.85l-.02-7.86c0-1.4-1.31-2.39-2.49-2.3-1.33.11-2.28,1.14-2.28,2.58l-.02,7.63c-4.3,1.23-6.86,4.98-6.78,9.14.08,3.95,2.71,7.49,6.78,8.72l.04,22.46ZM62.25,68.98c-.55-2.12.64-4.8,3.25-5.4,2.67-.62,4.9,1.13,5.43,3.42.53,2.33-1.02,4.65-3.19,5.2-2.5.63-4.84-.73-5.49-3.22Z"/>
  <path d="M86.88,92.14l.04,6.92c.01,1.33,1.26,2.24,2.4,2.23,1.13,0,2.32-.9,2.33-2.42l.05-6.76c4.27-1.19,6.95-4.91,6.86-9.11-.08-4.02-2.77-7.6-6.88-8.74l-.02-23.19c0-1.56-1.46-2.44-2.68-2.27-1.23.17-2.08,1.17-2.08,2.59v22.87c-4.36,1.25-6.95,4.96-6.91,9.06.05,4.05,2.77,7.63,6.89,8.82ZM89.08,78.74c2.69-.11,4.63,2.04,4.7,4.26.08,2.57-1.88,4.51-4.18,4.65-2.53.16-4.59-1.74-4.79-4-.22-2.52,1.58-4.79,4.27-4.91Z"/>
  <path d="M41.51,99.04c.01,1.31,1.24,2.26,2.3,2.25,1.18-.01,2.42-.88,2.43-2.4l.04-6.76c4.19-1.25,6.87-4.94,6.78-9.13-.09-4.03-2.76-7.59-6.8-8.76v-23.2c-.01-1.53-1.52-2.41-2.78-2.24-1.11.16-2,1.22-2,2.59v22.87c-4.23,1.15-6.93,4.9-6.89,9.04.03,4.07,2.7,7.66,6.87,8.81l.05,6.93ZM39.4,83.64c-.25-2.42,1.51-4.69,4.19-4.89,2.65-.2,4.6,1.98,4.68,4.23.09,2.5-1.77,4.53-4.15,4.67-2.45.15-4.49-1.67-4.72-4.01Z"/>
  <path d="M105.34,101.68c-7.69,4.53-15.4,8.67-23.45,12.52-3.37,1.6-6.65,2.77-10.25,3.51-.59-3.17-2.48-5.74-5.5-6.65l-20.06-6.01c-4.09-1.22-8.32.07-12.03,1.91-4.66,2.31-9.1,4.31-14.31,5.16-.98-2.54-3.12-3.7-5.68-3.69l-9.18.04C1.97,108.86,0,111.19,0,114.14l.05,12.68h4.63l.05-13.52v-.07h10.49l.02,31.94h-.05l-10.48.04v-7.92s-.05,0-.05,0H.04l.02,7.65c0,3.12,2.93,5.05,5.51,5.06l9.13-.04c3.29-.02,5.61-2.86,5.31-6.21l14.55.23c5.63.09,10.98,1.03,16.45,2.34,9.04,2.06,15.31,1.75,23.69-2.28,15.12-7.28,28.13-18.77,40.51-29.98,3.36-3.04,3.99-7.65,1.24-11.06-2.9-3.59-7.18-3.64-11.11-1.32ZM99.45,121.59c.16-.13.32-.27.48-.4-.15.13-.3.25-.46.38,0,0-.01.01-.02.02ZM112.79,109.61c-.13.21-.28.41-.46.6-.1.1-.21.21-.32.31-2.22,2.03-4.55,4.13-6.95,6.25-.02.01-.04.03-.06.06-.69.61-1.39,1.21-2.1,1.82-.44.38-.88.76-1.32,1.13-.26.22-.51.43-.77.65-.59.5-1.18.99-1.77,1.49-.02.01-.03.03-.05.04h0c-4.03,3.34-8.21,6.6-12.49,9.56-.18.13-.36.25-.54.37-1.07.74-2.16,1.45-3.24,2.15-.27.18-.54.36-.82.52-.18.12-.37.23-.55.35-.43.27-.86.53-1.29.79-.03.02-.06.04-.09.05-.19.12-.38.23-.57.34-.44.26-.88.52-1.33.77-.31.18-.62.35-.93.52-.46.25-.91.5-1.37.74-.36.19-.73.38-1.09.57-.52.27-1.04.53-1.56.79-.1.05-.2.09-.29.14-.67.32-1.34.63-2.01.93-5.27,2.34-10.71,2.86-16.37,1.57-7.67-1.75-15.18-2.98-23.1-3.04l-11.34-.1v-21.97s.01-.06.01-.06c5.69-.96,10.69-2.88,15.66-5.51,2.74-1.45,5.57-2.29,8.87-1.92l20.19,6.08c1.73.52,2.36,2.47,2.06,3.85-.08.37-.23.72-.45,1.04-.03.06-.07.12-.11.18-.07.1-.15.19-.23.28,0,0,0,0,0,0,.08-.09.16-.18.23-.28-.24.31-.53.58-.86.79-.05.03-.09.06-.14.09-.09.05-.19.1-.28.14-.1.04-.2.08-.31.12-.05.02-.1.04-.15.05-.02,0-.04.01-.06.02-.14.04-.28.06-.43.08-.06,0-.11,0-.17,0-.09,0-.19.01-.28,0-.16,0-.33-.03-.49-.06l-8.41-1.8c-5.57-1.19-10.86-.86-16.17,1.19-.62.24-1.14.56-1.48.98-.08.08-.14.16-.19.25-.32.52-.41,1.17-.17,1.96.41,1.33,2.04,1.99,3.55,1.34,4.14-1.76,8.33-2.12,12.71-1.19l8.75,1.88c2.65.57,5.28-.12,7.21-1.77.14-.12.27-.24.4-.36.49-.48.93-1.03,1.3-1.64,0-.02.03-.05.04-.07,4.35-.57,8.22-1.79,12.22-3.65,8.74-4.06,16.97-8.66,25.34-13.42,1.72-.97,3.36-1.18,4.64.56.77,1.06.73,2.32-.03,3.45ZM102.56,118.95s.02-.02.03-.02c0,0-.02.02-.03.02Z"/>
  <path d="M133.19,10.59v-5.04c0-3.2-2.52-5.53-5.59-5.55l-9.13.05c-3.27.02-5.71,2.88-5.35,6.21l-13.88-.21c-5.84-.09-11.4-1.03-17.1-2.33-8.9-2.16-15.37-1.76-23.64,2.23-14.35,6.92-30,19.9-41.54,31.07-3.06,2.96-2.27,7.83.26,10.51,3.01,3.18,6.94,2.95,10.66.78,7.84-4.58,15.66-8.87,23.89-12.75,3.23-1.52,6.36-2.61,9.79-3.25.64,3.74,2.89,5.91,6.03,6.83l19.54,5.81c4.15,1.23,8.5-.12,12.26-2.03,4.56-2.31,8.94-4.23,14.08-4.99.87,2.07,2.69,3.58,4.95,3.59l9.23.03c2.9-.05,5.53-2.28,5.54-5.34v-15.24h-4.79v15.7s-10.53-.01-10.53-.01V4.85l10.53-.04v5.78h4.79ZM97.52,38.55c-2.85,1.54-5.85,2.31-9.06,1.92l-19.8-5.96c-1.86-.56-2.66-2.37-2.27-3.98.4-1.7,2.15-2.81,4.05-2.39l8.39,1.84c5.34,1.18,10.46.8,15.74-1.22,1.55-.6,2.45-1.67,1.97-3.24-.42-1.35-2.04-1.98-3.56-1.34-4.13,1.72-8.35,2.14-12.74,1.2l-8.98-1.94c-3.44-.74-6.9.93-8.76,3.87-4.28.61-8.13,1.81-12.14,3.66-8.76,4.02-16.97,8.68-25.36,13.41-1.76.99-3.44,1.19-4.64-.51-1.04-1.48-.68-3.08.8-4.41,12.4-11.16,25.7-23.01,40.95-29.91,5.57-2.51,11.25-2.98,17.22-1.54,6.08,1.36,11.99,2.61,18.28,2.75l15.48.32v22c-5.61.96-10.63,2.81-15.57,5.47Z"/>
</svg>